<?xml version="1.0" encoding="UTF-8" standalone="no"?>
<svg width="85px" height="85px" viewBox="0 0 85 85" version="1.1" xmlns="http://www.w3.org/2000/svg" xmlns:xlink="http://www.w3.org/1999/xlink">
    <!-- Generator: Sketch 3.6.1 (26313) - http://www.bohemiancoding.com/sketch -->
    <title>Combined Shape</title>
    <desc>Created with Sketch.</desc>
    <defs></defs>
    <g id="Page-1" stroke="none" stroke-width="1" fill="none" fill-rule="evenodd">
        <g id="-" transform="translate(-136.000000, -122.000000)" fill="#181616">
            <path d="M178.5,207 C201.972102,207 221,187.972102 221,164.5 C221,141.027898 201.972102,122 178.5,122 C155.027898,122 136,141.027898 136,164.5 C136,187.972102 155.027898,207 178.5,207 Z M180.32,193.92 C185.6,193.92 190.48,193.12 194.48,190.8 L191.28,185.04 C188,186.72 184,187.36 180.08,187.36 C165.68,187.36 157.2,178.4 157.2,165.44 C157.2,152.48 165.84,143.44 178.96,143.44 C192.88,143.44 200.72,150.48 200.72,163.44 C200.72,169.76 198.64,171.68 196.88,171.68 C195.36,171.68 194.48,170.48 194.48,167.44 L194.48,152.08 L182.64,152.08 L182.64,154.16 C181.2,152.4 179.12,151.36 175.12,151.36 C168,151.36 161.84,157.44 161.84,165.76 C161.84,174 168,180.08 175.12,180.08 C179.44,180.08 182.32,178.96 184.72,175.84 C186.48,178.72 190,180.08 194.72,180.08 C201.92,180.08 207.76,174.48 207.76,163.28 C207.76,147.84 195.92,136.96 179.2,136.96 C163.36,136.96 149.84,148.64 149.84,165.44 C149.84,183.2 163.28,193.92 180.32,193.92 Z M178.4,170.24 C175.92,170.24 173.92,168.56 173.92,165.76 C173.92,163.04 175.92,161.2 178.4,161.2 C180.8,161.2 182.72,163.04 182.72,165.76 C182.72,168.56 180.8,170.24 178.4,170.24 Z" id="Combined-Shape"></path>
        </g>
    </g>
</svg>