<svg xmlns="http://www.w3.org/2000/svg" width="16" height="16" viewBox="0 0 16 16"><path d="M8 0C3.582 0 0 3.582 0 8s3.582 8 8 8 8-3.582 8-8-3.582-8-8-8zm3.993 5.992c.004.086.008.174.008.262C12 8.924 9.97 12 6.257 12c-1.14 0-2.198-.336-3.092-.907.158.02.326.028.49.028.945 0 1.83-.323 2.52-.864-.883-.016-1.6-.6-1.857-1.402.123.023.305.037.435.037.184 0 .474-.024.644-.07C4.473 8.633 4 7.817 4 6.84v-.027c0 .152.36.243.69.254-.54-.363-1.12-.98-1.12-1.682 0-.37.1-.717.272-1.015.996 1.222 2.484 2.026 4.163 2.11-.035-.148-.052-.302-.052-.46 0-1.116.903-2.02 2.02-2.02.58 0 1.104.245 1.474.64.46-.092.892-.26 1.282-.49-.152.47-.473.866-.89 1.116.41-.05.798-.158 1.16-.318-.27.404-.61.76-1.007 1.044z" fill-rule="evenodd" clip-rule="evenodd"/></svg>