<svg width="85" height="85" viewBox="0 0 85 85" xmlns="http://www.w3.org/2000/svg"><title>Combined Shape</title><path d="M42.5 85C65.972 85 85 65.972 85 42.5S65.972 0 42.5 0 0 19.028 0 42.5 19.028 85 42.5 85zm1.82-13.08c5.28 0 10.16-.8 14.16-3.12l-3.2-5.76C52 64.72 48 65.36 44.08 65.36c-14.4 0-22.88-8.96-22.88-21.92s8.64-22 21.76-22c13.92 0 21.76 7.04 21.76 20 0 6.32-2.08 8.24-3.84 8.24-1.52 0-2.4-1.2-2.4-4.24V30.08H46.64v2.08c-1.44-1.76-3.52-2.8-7.52-2.8-7.12 0-13.28 6.08-13.28 14.4 0 8.24 6.16 14.32 13.28 14.32 4.32 0 7.2-1.12 9.6-4.24 1.76 2.88 5.28 4.24 10 4.24 7.2 0 13.04-5.6 13.04-16.8 0-15.44-11.84-26.32-28.56-26.32-15.84 0-29.36 11.68-29.36 28.48 0 17.76 13.44 28.48 30.48 28.48zM42.4 48.24c-2.48 0-4.48-1.68-4.48-4.48 0-2.72 2-4.56 4.48-4.56 2.4 0 4.32 1.84 4.32 4.56 0 2.8-1.92 4.48-4.32 4.48z" fill="#181616" fill-rule="evenodd"/></svg>