<svg xmlns="http://www.w3.org/2000/svg" width="15.995" height="13.004" viewBox="0 0 15.995 13.004"><path d="M15.995 1.54c-.59.26-1.22.437-1.885.517.678-.406 1.197-1.05 1.443-1.816-.635.378-1.338.65-2.085.798C12.87.398 12.016 0 11.073 0 9.26 0 7.79 1.47 7.79 3.283c0 .258.03.508.085.748C5.147 3.895 2.728 2.59 1.108.6c-.28.486-.443 1.05-.443 1.652 0 1.14.758 2.143 1.64 2.732-.54-.017-1.31-.166-1.31-.412v.043c0 1.59.953 2.916 2.454 3.22-.277.073-.655.114-.955.114-.212 0-.46-.022-.663-.062.418 1.305 1.608 2.254 3.044 2.28-1.123.88-2.55 1.405-4.087 1.405-.267 0-.533-.016-.79-.045 1.453.93 3.175 1.475 5.03 1.475 6.038 0 9.337-5.002 9.337-9.34 0-.143-.004-.285-.01-.426.642-.462 1.198-1.04 1.638-1.698z"/></svg>